<svg
  xmlns="http://www.w3.org/2000/svg"
  viewBox="0 0 54 33"
  fill="none"
>
  <path
    fill="#38BDF8"
    d="M27 0C19.8 0 15.3 3.6 13.5 10.8C16.2 7.2 19.35 5.85 22.95 6.75C25.005 7.263 26.475 8.755 28.11 10.41C30.78 13.11 33.855 16.2 40.5 16.2C47.7 16.2 52.2 12.6 54 5.4C51.3 9 48.15 10.35 44.55 9.45C42.495 8.937 41.025 7.445 39.39 5.79C36.72 3.09 33.645 0 27 0ZM13.5 16.2C6.3 16.2 1.8 19.8 0 27C2.7 23.4 5.85 22.05 9.45 22.95C11.505 23.463 12.975 24.955 14.61 26.61C17.28 29.31 20.355 32.4 27 32.4C34.2 32.4 38.7 28.8 40.5 21.6C37.8 25.2 34.65 26.55 31.05 25.65C28.995 25.137 27.525 23.645 25.89 21.99C23.22 19.29 20.145 16.2 13.5 16.2Z"
  />
</svg>
